<svg xmlns="http://www.w3.org/2000/svg" width="105.82978726912003" height="19.872340420135288" style=""><rect x="0" y="0" fill="none" stroke="none"/>

 <g style="">
   <rect fill="none" id="canvas_background" height="22" width="92" y="-1" x="-1"/>
 </g>
 <g style="" class="currentLayer">
  <title>Layer 1</title>
  <path id="svg_1" fill="#282828" d="m7.667909,18.242c-1.232,0 -2.321,-0.253 -3.267,-0.759c-0.946,-0.506 -1.6867,-1.2173 -2.222,-2.134c-0.5354,-0.9167 -0.803,-1.991 -0.803,-3.223c0,-1.22466 0.2676,-2.288 0.803,-3.19c0.5353,-0.902 1.276,-1.595 2.222,-2.079c0.946,-0.49133 2.035,-0.737 3.267,-0.737c0.924,0 1.7416,0.13567 2.453,0.407c0.7113,0.27134 1.309,0.63434 1.793,1.089c0.4913,0.44734 0.8653,0.94234 1.122,1.485c0.2566,0.53534 0.385,1.07067 0.385,1.606c0,0.01467 0,0.02934 0,0.044c0,0.01467 0,0.02934 0,0.044l-2.871,0c0,-0.03666 -0.0037,-0.077 -0.011,-0.121c-0.0074,-0.044 -0.0147,-0.088 -0.022,-0.132c-0.0587,-0.374 -0.209,-0.71133 -0.451,-1.012c-0.242,-0.308 -0.5647,-0.55366 -0.968,-0.737c-0.4034,-0.18333 -0.891,-0.275 -1.463,-0.275c-0.6087,0 -1.166,0.13567 -1.672,0.407c-0.4987,0.264 -0.8984,0.66367 -1.199,1.199c-0.2934,0.53534 -0.44,1.2027 -0.44,2.002c0,0.792 0.1466,1.4667 0.44,2.024c0.2933,0.55 0.6893,0.9717 1.188,1.265c0.506,0.286 1.067,0.429 1.683,0.429c0.6526,0 1.1843,-0.099 1.595,-0.297c0.418,-0.2053 0.7333,-0.4767 0.946,-0.814c0.2126,-0.3447 0.3336,-0.7187 0.363,-1.122l2.882,0c0,0.5427 -0.1247,1.089 -0.374,1.639c-0.2494,0.5427 -0.616,1.0413 -1.1,1.496c-0.484,0.4547 -1.0854,0.8177 -1.804,1.089c-0.7114,0.2713 -1.5364,0.407 -2.475,0.407z"/>
  <path id="svg_2" fill="#282828" d="m16.633507,13.094l0,-2.057l8.17304,0l-0.33,0.55c0,-0.044 0,-0.0917 0,-0.143c0,-0.0587 0,-0.1063 0,-0.143c0,-0.506 -0.1137,-0.979 -0.341,-1.419c-0.22737,-0.44733 -0.57204,-0.80666 -1.03404,-1.078c-0.462,-0.27866 -1.04867,-0.418 -1.76,-0.418c-0.704,0 -1.31633,0.15034 -1.837,0.451c-0.51333,0.29334 -0.913,0.71867 -1.199,1.276c-0.27867,0.55734 -0.418,1.2247 -0.418,2.002c0,0.7993 0.13567,1.4887 0.407,2.068c0.27133,0.572 0.66733,1.012 1.188,1.32c0.528,0.3007 1.16967,0.451 1.925,0.451c0.51333,0 0.957,-0.0477 1.331,-0.143c0.374,-0.0953 0.67833,-0.2237 0.913,-0.385c0.242,-0.1687 0.42167,-0.3483 0.53904,-0.539c0.1246,-0.1907 0.198,-0.3813 0.22,-0.572l2.882,0c-0.044,0.4913 -0.209,0.9717 -0.495,1.441c-0.2787,0.462 -0.671,0.8837 -1.177,1.265c-0.506,0.374 -1.122,0.6747 -1.84804,0.902c-0.71867,0.22 -1.54,0.33 -2.464,0.33c-1.254,0 -2.35033,-0.2567 -3.289,-0.77c-0.93867,-0.5133 -1.672,-1.2283 -2.2,-2.145c-0.52067,-0.9167 -0.781,-1.9653 -0.781,-3.146c0,-1.21 0.264,-2.26966 0.792,-3.179c0.53533,-0.90933 1.276,-1.617 2.222,-2.123c0.946,-0.51333 2.03133,-0.77 3.256,-0.77c1.26133,0 2.35033,0.25667 3.26704,0.77c0.924,0.51334 1.6353,1.22834 2.134,2.145c0.4986,0.90934 0.748,1.969 0.748,3.179c0,0.154 -0.0037,0.319 -0.011,0.495c-0.0074,0.176 -0.0184,0.3043 -0.033,0.385l-10.78004,0z"/>
  <path id="svg_3" fill="#282828" d="m29.632532,18l0,-11.682l2.893,0l0,3.883l-0.671,-0.374c0.0733,-0.506 0.209,-0.98266 0.407,-1.43c0.198,-0.45466 0.462,-0.85066 0.792,-1.188c0.33,-0.34466 0.7296,-0.61233 1.199,-0.803c0.4693,-0.19066 1.0046,-0.286 1.606,-0.286c0.4766,0 0.8506,0.03667 1.122,0.11c0.2786,0.066 0.451,0.121 0.517,0.165l-0.528,2.651c-0.0734,-0.05133 -0.2237,-0.11366 -0.451,-0.187c-0.22,-0.08066 -0.517,-0.121 -0.891,-0.121c-0.594,0 -1.0927,0.10267 -1.496,0.308c-0.396,0.198 -0.7114,0.46934 -0.946,0.814c-0.2347,0.33734 -0.4034,0.71134 -0.506,1.122c-0.1027,0.4033 -0.154,0.8067 -0.154,1.21l0,5.808l-2.893,0z"/>
  <path id="svg_4" fill="#282828" d="m42.441247,18.242c-0.8727,0 -1.639,-0.1357 -2.299,-0.407c-0.66,-0.2787 -1.177,-0.6783 -1.551,-1.199c-0.374,-0.5207 -0.561,-1.1477 -0.561,-1.881c0,-0.7993 0.2163,-1.4557 0.649,-1.969c0.44,-0.5207 1.0303,-0.9203 1.771,-1.199c0.7406,-0.286 1.562,-0.4693 2.464,-0.55c1.3346,-0.132 2.266,-0.25666 2.794,-0.374c0.5353,-0.12466 0.803,-0.32266 0.803,-0.594c0,-0.00733 0,-0.011 0,-0.011c0,-0.00733 0,-0.011 0,-0.011c0,-0.51333 -0.231,-0.90933 -0.693,-1.188c-0.462,-0.27866 -1.1147,-0.418 -1.958,-0.418c-0.8874,0 -1.5694,0.15767 -2.046,0.473c-0.4694,0.308 -0.704,0.79934 -0.704,1.474l-2.86,0c0,-0.91666 0.242,-1.69033 0.726,-2.321c0.4913,-0.638 1.1623,-1.122 2.013,-1.452c0.8506,-0.33 1.815,-0.495 2.893,-0.495c1.0046,0 1.925,0.15034 2.761,0.451c0.836,0.30067 1.507,0.75534 2.013,1.364c0.506,0.60867 0.759,1.36767 0.759,2.277c0,0.154 0,0.308 0,0.462c0,0.154 0,0.308 0,0.462l0,4.4c0,0.2787 0.0073,0.5537 0.022,0.825c0.022,0.264 0.0623,0.5023 0.121,0.715c0.0733,0.2347 0.1613,0.4327 0.264,0.594c0.1026,0.1613 0.1833,0.2713 0.242,0.33l-2.86,0c-0.0514,-0.0513 -0.1247,-0.1503 -0.22,-0.297c-0.088,-0.154 -0.1687,-0.33 -0.242,-0.528c-0.0734,-0.22 -0.1284,-0.4547 -0.165,-0.704c-0.0367,-0.2567 -0.055,-0.539 -0.055,-0.847l0.572,0.396c-0.22,0.4473 -0.5574,0.8397 -1.012,1.177c-0.4474,0.33 -0.9827,0.5867 -1.606,0.77c-0.6234,0.1833 -1.3017,0.275 -2.035,0.275zm0.704,-2.277c0.6013,0 1.1586,-0.1027 1.672,-0.308c0.5133,-0.2053 0.9276,-0.5207 1.243,-0.946c0.3153,-0.4327 0.473,-0.9863 0.473,-1.661l0,-1.562l0.704,0.792c-0.4694,0.176 -1.034,0.3227 -1.694,0.44c-0.66,0.11 -1.3274,0.198 -2.002,0.264c-0.8654,0.0807 -1.518,0.231 -1.958,0.451c-0.4327,0.22 -0.649,0.5793 -0.649,1.078c0,0.484 0.1833,0.847 0.55,1.089c0.3666,0.242 0.9203,0.363 1.661,0.363z" class=""/><path fill="#282828" d="m95.10082341601563,18.242 c-0.8727000000000003,0 -1.6390000000000002,-0.13570000000000004 -2.299,-0.4070000000000001 c-0.6600000000000003,-0.2787 -1.177,-0.6783000000000002 -1.5510000000000002,-1.199 c-0.3740000000000001,-0.5207 -0.561,-1.1477 -0.561,-1.8810000000000002 c0,-0.7993 0.21630000000000005,-1.4557 0.6490000000000002,-1.969 c0.4400000000000001,-0.5207 1.0303,-0.9203 1.771,-1.199 c0.7406000000000003,-0.2860000000000001 1.562,-0.4693000000000001 2.464,-0.55 c1.3346,-0.132 2.266,-0.25666 2.794,-0.3740000000000001 c0.5353,-0.12466000000000003 0.803,-0.3226600000000001 0.803,-0.5940000000000002 c0,-0.007330000000000002 0,-0.011000000000000006 0,-0.011000000000000006 c0,-0.007330000000000002 0,-0.011000000000000006 0,-0.011000000000000006 c0,-0.51333 -0.231,-0.90933 -0.6930000000000004,-1.188 c-0.462,-0.27866 -1.1147,-0.4180000000000001 -1.9580000000000002,-0.4180000000000001 c-0.8874000000000002,0 -1.5694,0.15767 -2.046,0.4730000000000001 c-0.4694000000000001,0.3080000000000001 -0.7040000000000002,0.79934 -0.7040000000000002,1.474 l-2.8600000000000003,0 c0,-0.91666 0.24200000000000005,-1.69033 0.7260000000000002,-2.321 c0.4913000000000001,-0.6380000000000002 1.1623,-1.122 2.013,-1.452 c0.8506000000000002,-0.3300000000000001 1.815,-0.4950000000000001 2.8930000000000002,-0.4950000000000001 c1.0046,0 1.925,0.15034000000000006 2.761,0.451 c0.8360000000000002,0.3006700000000001 1.5070000000000001,0.7553400000000002 2.013,1.364 c0.506,0.6086700000000004 0.7590000000000002,1.36767 0.7590000000000002,2.277 c0,0.15400000000000005 0,0.3080000000000001 0,0.462 c0,0.15400000000000005 0,0.3080000000000001 0,0.462 l0,4.4 c0,0.2787 0.0073000000000000035,0.5537000000000002 0.022000000000000013,0.8250000000000002 c0.022000000000000013,0.264 0.06230000000000003,0.5023 0.12100000000000002,0.7150000000000002 c0.0733,0.23470000000000005 0.16130000000000005,0.4327000000000001 0.264,0.5940000000000002 c0.10260000000000002,0.16130000000000005 0.18330000000000005,0.2713000000000001 0.24200000000000005,0.3300000000000001 l-2.8600000000000003,0 c-0.051400000000000015,-0.05130000000000002 -0.12470000000000003,-0.15030000000000004 -0.22000000000000006,-0.2970000000000001 c-0.08800000000000004,-0.15400000000000005 -0.16870000000000007,-0.3300000000000001 -0.24200000000000005,-0.528 c-0.0734,-0.22000000000000006 -0.12840000000000001,-0.4547 -0.16500000000000006,-0.7040000000000002 c-0.0367,-0.2567 -0.055000000000000014,-0.539 -0.055000000000000014,-0.8470000000000002 l0.5720000000000002,0.3960000000000002 c-0.22000000000000006,0.4473000000000002 -0.5574,0.8397000000000002 -1.012,1.177 c-0.4474000000000002,0.3300000000000001 -0.9827,0.5867000000000002 -1.606,0.77 c-0.6234000000000002,0.18330000000000005 -1.3017,0.275 -2.035,0.275 zm0.7040000000000002,-2.277 c0.6013000000000002,0 1.1586,-0.10270000000000003 1.6720000000000004,-0.3080000000000001 c0.5133,-0.2053 0.9276000000000002,-0.5207 1.243,-0.9460000000000002 c0.3153000000000002,-0.4327000000000001 0.4730000000000001,-0.9863 0.4730000000000001,-1.661 l0,-1.562 l0.7040000000000002,0.792 c-0.4694000000000001,0.17600000000000005 -1.034,0.3227000000000001 -1.6940000000000004,0.4400000000000001 c-0.6600000000000003,0.11000000000000003 -1.3274000000000001,0.19800000000000006 -2.002,0.264 c-0.8654000000000002,0.08070000000000004 -1.518,0.231 -1.9580000000000002,0.451 c-0.4327000000000001,0.22000000000000006 -0.6490000000000002,0.5793 -0.6490000000000002,1.078 c0,0.4840000000000001 0.18330000000000005,0.8470000000000002 0.55,1.089 c0.3666000000000001,0.24200000000000005 0.9203,0.3630000000000001 1.661,0.3630000000000001 z" class="" id="svg_8"/>
  <path id="svg_5" fill="#282828" d="m59.151132,18l0,-4.741c0,-0.4327 0,-0.8103 0,-1.133c0,-0.33 0,-0.605 0,-0.825c0,-0.286 -0.0183,-0.583 -0.055,-0.891c-0.0366,-0.31533 -0.1173,-0.605 -0.242,-0.869c-0.1246,-0.264 -0.319,-0.47666 -0.583,-0.638c-0.2566,-0.16866 -0.6123,-0.253 -1.067,-0.253c-0.44,0 -0.814,0.09167 -1.122,0.275c-0.3006,0.176 -0.55,0.41434 -0.748,0.715c-0.1906,0.29334 -0.33,0.63067 -0.418,1.012c-0.088,0.374 -0.132,0.759 -0.132,1.155l-0.968,-0.649c0,-0.96066 0.1797,-1.81866 0.539,-2.574c0.3594,-0.75533 0.869,-1.353 1.529,-1.793c0.6674,-0.44733 1.4557,-0.671 2.365,-0.671c0.9387,0 1.683,0.198 2.233,0.594c0.55,0.38867 0.9424,0.91667 1.177,1.584c0.242,0.66734 0.363,1.41534 0.363,2.244c0,0.308 0,0.7187 0,1.232c0,0.506 0,1.1037 0,1.793l0,4.433l-2.871,0zm-7.26,0l0,-11.682l2.893,0l0,11.682l-2.893,0zm14.476,0l0,-4.73c0,-0.462 0,-0.8543 0,-1.177c0,-0.3227 0,-0.594 0,-0.814c0,-0.308 -0.0183,-0.616 -0.055,-0.924c-0.0366,-0.31533 -0.1173,-0.59766 -0.242,-0.847c-0.1246,-0.25666 -0.319,-0.462 -0.583,-0.616c-0.264,-0.16133 -0.6233,-0.242 -1.078,-0.242c-0.4473,0 -0.825,0.088 -1.133,0.264c-0.3006,0.176 -0.5426,0.41067 -0.726,0.704c-0.1833,0.29334 -0.319,0.62334 -0.407,0.99c-0.0806,0.36667 -0.121,0.7333 -0.121,1.1l-0.968,-0.638c0,-0.93133 0.176,-1.771 0.528,-2.519c0.352,-0.748 0.858,-1.33833 1.518,-1.771c0.66,-0.44 1.4447,-0.66 2.354,-0.66c0.9167,0 1.6537,0.187 2.211,0.561c0.5574,0.374 0.9607,0.88734 1.21,1.54c0.2567,0.64534 0.385,1.38234 0.385,2.211c0,0.32267 0,0.7333 0,1.232c0,0.4987 0,1.089 0,1.771l0,4.565l-2.893,0z"/>
  <path id="svg_6" fill="#282828" d="m71.548532,18l0,-11.682l2.86,0l0,11.682l-2.86,0zm1.441,-13.838c-0.4693,0 -0.88,-0.12466 -1.232,-0.374c-0.3447,-0.25666 -0.517,-0.61233 -0.517,-1.067c0,-0.44733 0.1723,-0.79566 0.517,-1.045c0.352,-0.24933 0.7627,-0.374 1.232,-0.374c0.462,0 0.8653,0.12467 1.21,0.374c0.3447,0.24934 0.517,0.59767 0.517,1.045c0,0.45467 -0.1723,0.81034 -0.517,1.067c-0.3447,0.24934 -0.748,0.374 -1.21,0.374z"/>
  <path id="svg_7" fill="#282828" d="m82.610432,18.242c-1.232,0 -2.321,-0.253 -3.267,-0.759c-0.946,-0.506 -1.6867,-1.2173 -2.222,-2.134c-0.5354,-0.9167 -0.803,-1.991 -0.803,-3.223c0,-1.22466 0.2676,-2.288 0.803,-3.19c0.5353,-0.902 1.276,-1.595 2.222,-2.079c0.946,-0.49133 2.035,-0.737 3.267,-0.737c0.924,0 1.7416,0.13567 2.453,0.407c0.7113,0.27134 1.309,0.63434 1.793,1.089c0.4913,0.44734 0.8653,0.94234 1.122,1.485c0.2566,0.53534 0.385,1.07067 0.385,1.606c0,0.01467 0,0.02934 0,0.044c0,0.01467 0,0.02934 0,0.044l-2.871,0c0,-0.03666 -0.0037,-0.077 -0.011,-0.121c-0.0074,-0.044 -0.0147,-0.088 -0.022,-0.132c-0.0587,-0.374 -0.209,-0.71133 -0.451,-1.012c-0.242,-0.308 -0.5647,-0.55366 -0.968,-0.737c-0.4034,-0.18333 -0.891,-0.275 -1.463,-0.275c-0.6087,0 -1.166,0.13567 -1.672,0.407c-0.4987,0.264 -0.8984,0.66367 -1.199,1.199c-0.2934,0.53534 -0.44,1.2027 -0.44,2.002c0,0.792 0.1466,1.4667 0.44,2.024c0.2933,0.55 0.6893,0.9717 1.188,1.265c0.506,0.286 1.067,0.429 1.683,0.429c0.6526,0 1.1843,-0.099 1.595,-0.297c0.418,-0.2053 0.7333,-0.4767 0.946,-0.814c0.2126,-0.3447 0.3336,-0.7187 0.363,-1.122l2.882,0c0,0.5427 -0.1247,1.089 -0.374,1.639c-0.2494,0.5427 -0.616,1.0413 -1.1,1.496c-0.484,0.4547 -1.0854,0.8177 -1.804,1.089c-0.7114,0.2713 -1.5364,0.407 -2.475,0.407z"/>
 </g>
</svg>